<svg width="24" height="24" viewBox="0 0 24 24" fill="none" xmlns="http://www.w3.org/2000/svg">
<path d="M7 13.4999H9C9.59085 13.4999 10.1758 13.6166 10.7217 13.8427C11.2676 14.0688 11.7638 14.4004 12.1816 14.8182C12.5995 15.2361 12.9311 15.7322 13.1572 16.2782C13.3833 16.8241 13.5 17.409 13.5 17.9999V18.4999H12.5V17.9999C12.5 17.0717 12.131 16.1816 11.4746 15.5253C10.8182 14.8689 9.92824 14.4999 9 14.4999H7L6.82617 14.5038C5.96121 14.5468 5.14068 14.91 4.52539 15.5253C3.86903 16.1816 3.50002 17.0717 3.5 17.9999V18.4999H2.5V17.9999C2.50002 16.8064 2.97447 15.6621 3.81836 14.8182C4.66227 13.9743 5.80655 13.4999 7 13.4999ZM21.002 9.70886L15.9902 14.703L13.9951 12.7079L14.7021 11.996L15.6475 12.9344L16.001 13.286L20.29 8.99695L21.002 9.70886ZM8.18457 4.49988C8.58696 4.51092 8.98486 4.593 9.35938 4.74304C9.78745 4.91455 10.1759 5.17184 10.502 5.49792C10.828 5.82401 11.0853 6.21243 11.2568 6.6405C11.4069 7.015 11.489 7.41293 11.5 7.81531V8.18445C11.489 8.58685 11.4069 8.98473 11.2568 9.35925C11.0853 9.78733 10.828 10.1757 10.502 10.5018C10.1759 10.8279 9.78746 11.0852 9.35938 11.2567C8.98485 11.4068 8.58697 11.4888 8.18457 11.4999H7.81543C7.41303 11.4888 7.01515 11.4068 6.64062 11.2567C6.21254 11.0852 5.82414 10.8279 5.49805 10.5018C5.17197 10.1757 4.91467 9.78733 4.74316 9.35925C4.59313 8.98473 4.51103 8.58685 4.5 8.18445V7.81531C4.51105 7.41294 4.59313 7.015 4.74316 6.6405C4.91468 6.21243 5.17196 5.82401 5.49805 5.49792C5.82414 5.17184 6.21255 4.91455 6.64062 4.74304C7.01514 4.593 7.41304 4.51092 7.81543 4.49988H8.18457ZM7.97559 5.50085C7.65613 5.49185 7.33748 5.54479 7.03906 5.66003C6.72579 5.78111 6.4416 5.9665 6.2041 6.20398C5.96645 6.44163 5.78026 6.7264 5.65918 7.03992C5.54407 7.33817 5.49199 7.65622 5.50098 7.97546C5.48475 8.31116 5.5381 8.64729 5.65918 8.96082C5.78026 9.27425 5.9665 9.55915 6.2041 9.79675C6.44158 10.0341 6.72586 10.2197 7.03906 10.3407C7.33749 10.456 7.65612 10.5069 7.97559 10.4979V10.4989C7.9836 10.4993 7.99198 10.4976 8 10.4979C8.00802 10.4976 8.0164 10.4993 8.02441 10.4989L8.02344 10.4979C8.34323 10.5071 8.6622 10.4561 8.96094 10.3407C9.27414 10.2197 9.55842 10.0341 9.7959 9.79675C10.0335 9.55915 10.2197 9.27425 10.3408 8.96082C10.4619 8.64729 10.5153 8.31116 10.499 7.97546C10.508 7.65622 10.4559 7.33817 10.3408 7.03992C10.2197 6.7264 10.0335 6.44163 9.7959 6.20398C9.5584 5.9665 9.27421 5.78111 8.96094 5.66003C8.66221 5.54467 8.34322 5.49171 8.02344 5.50085H7.97559Z" fill="#00085E" stroke="#00085E"/>
</svg>
