<svg width="24" height="24" viewBox="0 0 24 24" fill="none" xmlns="http://www.w3.org/2000/svg">
<path d="M4 13.5H10C10.1326 13.5 10.2597 13.5527 10.3535 13.6465C10.4473 13.7403 10.5 13.8674 10.5 14V20C10.5 20.1326 10.4473 20.2597 10.3535 20.3535C10.2597 20.4473 10.1326 20.5 10 20.5H4C3.86739 20.5 3.74025 20.4473 3.64648 20.3535C3.55272 20.2597 3.5 20.1326 3.5 20V14C3.5 13.8674 3.55272 13.7403 3.64648 13.6465C3.74025 13.5527 3.86739 13.5 4 13.5ZM17 13.5C18.9299 13.5 20.5 15.0701 20.5 17C20.5 18.9299 18.9299 20.5 17 20.5C15.0701 20.5 13.5 18.9299 13.5 17C13.5 15.0701 15.0701 13.5 17 13.5ZM4.5 19.5H9.5V14.5H4.5V19.5ZM17 14.5C15.6209 14.5 14.5 15.6209 14.5 17C14.5 18.3791 15.6209 19.5 17 19.5C18.3791 19.5 19.5 18.3791 19.5 17C19.5 15.6209 18.3791 14.5 17 14.5ZM4 3.5H10C10.1326 3.5 10.2597 3.55272 10.3535 3.64648C10.4473 3.74025 10.5 3.86739 10.5 4V10C10.5 10.1326 10.4473 10.2597 10.3535 10.3535C10.2597 10.4473 10.1326 10.5 10 10.5H4C3.86739 10.5 3.74025 10.4473 3.64648 10.3535C3.55272 10.2597 3.5 10.1326 3.5 10V4C3.5 3.86739 3.55272 3.74025 3.64648 3.64648C3.74025 3.55272 3.86739 3.5 4 3.5ZM14 3.5H20C20.1326 3.5 20.2597 3.55272 20.3535 3.64648C20.4473 3.74025 20.5 3.86739 20.5 4V10C20.5 10.1326 20.4473 10.2597 20.3535 10.3535C20.2597 10.4473 20.1326 10.5 20 10.5H14C13.8674 10.5 13.7403 10.4473 13.6465 10.3535C13.5527 10.2597 13.5 10.1326 13.5 10V4C13.5 3.86739 13.5527 3.74025 13.6465 3.64648C13.7403 3.55272 13.8674 3.5 14 3.5ZM4.5 9.5H9.5V4.5H4.5V9.5ZM14.5 9.5H19.5V4.5H14.5V9.5Z" fill="#22303E" fill-opacity="0.9" stroke="#00085E"/>
</svg>
