<svg width="24" height="24" viewBox="0 0 24 24" fill="none" xmlns="http://www.w3.org/2000/svg">
<path d="M3 3.5H17C17.1326 3.5 17.2597 3.55272 17.3535 3.64648C17.4473 3.74025 17.5 3.86739 17.5 4V11.5H21C21.1326 11.5 21.2597 11.5527 21.3535 11.6465C21.4473 11.7403 21.5 11.8674 21.5 12V18C21.5 19.3779 20.3779 20.5 19 20.5H5C3.62214 20.5 2.5 19.3779 2.5 18V4C2.5 3.86739 2.55272 3.74025 2.64648 3.64648C2.74025 3.55272 2.86739 3.5 3 3.5ZM3.5 18C3.5 18.3978 3.65815 18.7792 3.93945 19.0605C4.22076 19.3419 4.60218 19.5 5 19.5H16.8779L16.6426 18.834C16.5509 18.5739 16.5 18.2928 16.5 18V4.5H3.5V18ZM17.5 18C17.5 18.3978 17.6581 18.7792 17.9395 19.0605C18.2208 19.3419 18.6022 19.5 19 19.5C19.3978 19.5 19.7792 19.3419 20.0605 19.0605C20.3419 18.7792 20.5 18.3978 20.5 18V12.5H17.5V18Z" fill="#00085E" stroke="#00085E"/>
<path d="M6 7H14V9H6V7ZM6 11H14V13H6V11ZM11 15H14V17H11V15Z" fill="#00085E"/>
</svg>
