<svg width="24" height="24" viewBox="0 0 24 24" fill="none" xmlns="http://www.w3.org/2000/svg">
<path d="M10 13.5H14C15.7239 13.5 17.3777 14.1843 18.5967 15.4033C19.8157 16.6223 20.5 18.2761 20.5 20V20.5H19.5V20C19.5 18.5413 18.9201 17.1428 17.8887 16.1113C16.8572 15.0799 15.4587 14.5 14 14.5H10C8.54131 14.5 7.14278 15.0799 6.11133 16.1113C5.07988 17.1428 4.5 18.5413 4.5 20V20.5H3.5V20C3.5 18.2761 4.18433 16.6223 5.40332 15.4033C6.62231 14.1843 8.27609 13.5 10 13.5ZM12 2.5C13.1935 2.5 14.3377 2.97445 15.1816 3.81836C16.0256 4.66227 16.5 5.80653 16.5 7C16.5 7.89002 16.2357 8.75998 15.7412 9.5C15.2467 10.24 14.5439 10.8167 13.7217 11.1572C12.8995 11.4977 11.9949 11.5867 11.1221 11.4131C10.2492 11.2394 9.44767 10.811 8.81836 10.1816C8.18905 9.55233 7.76056 8.7508 7.58691 7.87793C7.4133 7.00511 7.50227 6.10052 7.84277 5.27832C8.18335 4.4561 8.76005 3.75325 9.5 3.25879C10.24 2.76432 11.11 2.5 12 2.5ZM13.3398 3.7666C12.7004 3.50172 11.9963 3.43238 11.3174 3.56738C10.6384 3.70243 10.0149 4.03591 9.52539 4.52539C9.03591 5.01487 8.70243 5.63845 8.56738 6.31738C8.43238 6.99627 8.50172 7.70035 8.7666 8.33984C9.03153 8.97919 9.48023 9.52566 10.0557 9.91016C10.5592 10.2466 11.1402 10.4457 11.7412 10.4902L12 10.5C12.9283 10.5 13.8182 10.131 14.4746 9.47461C15.131 8.81823 15.5 7.92826 15.5 7L15.4902 6.74121C15.4457 6.14016 15.2466 5.55923 14.9102 5.05566C14.5257 4.48023 13.9792 4.03153 13.3398 3.7666Z" fill="#22303E" fill-opacity="0.9" stroke="#00085E"/>
</svg>
