<svg width="22" height="22" viewBox="0 0 22 22" fill="none" xmlns="http://www.w3.org/2000/svg">
<path d="M11 9.64453C10.6242 9.64453 10.3125 9.33287 10.3125 8.95704V5.90454C10.3125 5.52871 10.6242 5.21704 11 5.21704C11.3758 5.21704 11.6875 5.52871 11.6875 5.90454V8.95704C11.6875 9.34203 11.3758 9.64453 11 9.64453Z" fill="white"/>
<path d="M11.0191 18.6525C8.65415 18.6525 6.29831 18.2767 4.05248 17.525C3.21831 17.25 2.58581 16.6542 2.31081 15.9025C2.03581 15.1509 2.12748 14.2892 2.57665 13.5375L3.74081 11.5942C3.99748 11.1634 4.22665 10.3567 4.22665 9.85253V7.92751C4.22665 4.17834 7.26998 1.13501 11.0191 1.13501C14.7683 1.13501 17.8116 4.17834 17.8116 7.92751V9.85253C17.8116 10.3475 18.0408 11.1634 18.2974 11.5942L19.4616 13.5375C19.8924 14.2525 19.9658 15.105 19.6816 15.8842C19.3974 16.6634 18.7741 17.2592 17.9858 17.525C15.7399 18.2859 13.3841 18.6525 11.0191 18.6525ZM11.0191 2.51918C8.03081 2.51918 5.60165 4.94834 5.60165 7.93668V9.86169C5.60165 10.6042 5.30831 11.6767 4.92331 12.3092L3.75915 14.2617C3.52081 14.6559 3.46581 15.0775 3.60331 15.4442C3.74081 15.8109 4.05248 16.0859 4.49248 16.2325C8.70915 17.635 13.3474 17.635 17.5641 16.2325C17.9583 16.1042 18.2608 15.8109 18.3983 15.4259C18.5449 15.0409 18.4991 14.6192 18.2883 14.2617L17.1241 12.3184C16.7391 11.6859 16.4458 10.6134 16.4458 9.87086V7.94584C16.4366 4.94834 14.0074 2.51918 11.0191 2.51918Z" fill="white"/>
<path d="M10.9999 20.992C10.019 20.992 9.05655 20.5886 8.35989 19.892C7.66322 19.1953 7.25989 18.2328 7.25989 17.252H8.63489C8.63489 17.8753 8.89155 18.4803 9.33154 18.9203C9.77154 19.3603 10.3765 19.617 10.9999 19.617C12.3015 19.617 13.3649 18.5536 13.3649 17.252H14.7399C14.7399 19.3145 13.0624 20.992 10.9999 20.992Z" fill="white"/>
</svg>
