<svg width="24" height="24" viewBox="0 0 24 24" fill="none" xmlns="http://www.w3.org/2000/svg">
<path d="M12 2.5C14.509 2.53366 16.9063 3.54493 18.6807 5.31934C20.3456 6.98428 21.3384 9.19769 21.4824 11.5371L21.5 12.0068C21.4866 13.4649 21.1378 14.9005 20.4805 16.2021C19.8214 17.507 18.8697 18.6424 17.7002 19.5195L17.5 19.6699V19.6729C15.9118 20.8578 13.9837 21.501 12 21.501C10.0163 21.501 8.08824 20.8578 6.5 19.6729V19.6699L6.2998 19.5195C5.13031 18.6424 4.17857 17.507 3.51953 16.2021C2.86219 14.9005 2.51337 13.4649 2.5 12.0068C2.53203 9.49553 3.54343 7.09524 5.31934 5.31934C7.09374 3.54493 9.49101 2.53366 12 2.5ZM10.7021 16.083C10.0107 16.1422 9.34971 16.4057 8.80566 16.8438C8.18391 17.3446 7.75137 18.0433 7.58105 18.8232L7.50391 19.1777L7.81641 19.3613C9.08435 20.1073 10.5289 20.5 12 20.5C13.4711 20.5 14.9156 20.1073 16.1836 19.3613L16.4961 19.1777L16.4189 18.8232C16.2486 18.0433 15.8161 17.3446 15.1943 16.8438C14.5726 16.3431 13.7982 16.0706 13 16.0703H11L10.7021 16.083ZM11.9941 3.5C9.74999 3.52754 7.60553 4.43158 6.01855 6.01855C4.53081 7.5063 3.64345 9.48375 3.51562 11.5742L3.5 11.9941V12.0039C3.50887 13.1206 3.73811 14.2247 4.17383 15.2529C4.60948 16.2809 5.2431 17.2131 6.03906 17.9961L6.56641 18.5146L6.85156 17.833C7.19388 17.015 7.76974 16.3158 8.50781 15.8242C9.24592 15.3327 10.1132 15.0708 11 15.0703H13C13.8868 15.0708 14.7541 15.3327 15.4922 15.8242C16.2303 16.3158 16.8061 17.015 17.1484 17.833L17.4336 18.5146L17.9609 17.9961C18.7569 17.2131 19.3905 16.2809 19.8262 15.2529C20.2074 14.3532 20.4306 13.3954 20.4863 12.4219L20.5 12.0039V11.9941C20.4725 9.74999 19.5684 7.60553 17.9814 6.01855C16.4937 4.53081 14.5163 3.64345 12.4258 3.51562L12.0059 3.5H11.9941Z" fill="white" stroke="white"/>
<path d="M12.0001 5.99996C11.4714 5.98765 10.9458 6.08269 10.4549 6.27935C9.96403 6.47601 9.51815 6.7702 9.14424 7.14411C8.77032 7.51803 8.47613 7.96391 8.27947 8.45478C8.08282 8.94565 7.98777 9.47131 8.00008 9.99996C7.98777 10.5286 8.08282 11.0543 8.27947 11.5451C8.47613 12.036 8.77032 12.4819 9.14424 12.8558C9.51815 13.2297 9.96403 13.5239 10.4549 13.7206C10.9458 13.9172 11.4714 14.0123 12.0001 14C12.5287 14.0123 13.0544 13.9172 13.5453 13.7206C14.0361 13.5239 14.482 13.2297 14.8559 12.8558C15.2298 12.4819 15.524 12.036 15.7207 11.5451C15.9174 11.0543 16.0124 10.5286 16.0001 9.99996C16.0124 9.47131 15.9174 8.94565 15.7207 8.45478C15.524 7.96391 15.2298 7.51803 14.8559 7.14411C14.482 6.7702 14.0361 6.47601 13.5453 6.27935C13.0544 6.08269 12.5287 5.98765 12.0001 5.99996ZM12.0001 12C11.734 12.0128 11.4682 11.9699 11.2198 11.8739C10.9713 11.778 10.7456 11.6311 10.5573 11.4428C10.3689 11.2544 10.2221 11.0288 10.1261 10.7803C10.0301 10.5318 9.98722 10.266 10.0001 9.99996C9.98722 9.73391 10.0301 9.46811 10.1261 9.21964C10.2221 8.97116 10.3689 8.7455 10.5573 8.55716C10.7456 8.36881 10.9713 8.22195 11.2198 8.12599C11.4682 8.03003 11.734 7.9871 12.0001 7.99996C12.2661 7.9871 12.5319 8.03003 12.7804 8.12599C13.0289 8.22195 13.2545 8.36881 13.4429 8.55716C13.6312 8.7455 13.7781 8.97116 13.8741 9.21964C13.97 9.46811 14.0129 9.73391 14.0001 9.99996C14.0129 10.266 13.97 10.5318 13.8741 10.7803C13.7781 11.0288 13.6312 11.2544 13.4429 11.4428C13.2545 11.6311 13.0289 11.778 12.7804 11.8739C12.5319 11.9699 12.2661 12.0128 12.0001 12Z" fill="white"/>
</svg>
