<svg width="23" height="23" viewBox="0 0 23 23" fill="none" xmlns="http://www.w3.org/2000/svg">
<path fill-rule="evenodd" clip-rule="evenodd" d="M9.70312 4.86075L8.79673 7.31024C8.54193 7.99882 7.99903 8.54172 7.31046 8.79651L4.86096 9.70291L7.31046 10.6093C7.99903 10.8641 8.54193 11.407 8.79673 12.0956L9.70312 14.5451L10.6095 12.0956C10.8643 11.407 11.4072 10.8641 12.0958 10.6093L14.5453 9.70291L12.0958 8.79651C11.4072 8.54172 10.8643 7.99882 10.6095 7.31024L9.70312 4.86075ZM10.7142 3.45105C10.3669 2.51241 9.03933 2.51241 8.692 3.45105L7.44857 6.81138C7.33937 7.10648 7.1067 7.33915 6.81159 7.44835L3.45126 8.69179C2.51263 9.03911 2.51263 10.3667 3.45126 10.714L6.81159 11.9575C7.1067 12.0667 7.33937 12.2993 7.44857 12.5944L8.692 15.9548C9.03933 16.8934 10.3669 16.8934 10.7142 15.9548L11.9577 12.5944C12.0669 12.2993 12.2995 12.0667 12.5947 11.9575L15.955 10.714C16.8936 10.3667 16.8936 9.03911 15.955 8.69179L12.5947 7.44835C12.2995 7.33915 12.0669 7.10648 11.9577 6.81138L10.7142 3.45105Z" fill="black"/>
<path fill-rule="evenodd" clip-rule="evenodd" d="M16.8905 14.6065L16.5603 15.4987C16.3783 15.9905 15.9906 16.3783 15.4987 16.5603L14.6065 16.8904L15.4987 17.2206C15.9906 17.4026 16.3783 17.7904 16.5603 18.2822L16.8905 19.1744L17.2206 18.2822C17.4026 17.7904 17.7904 17.4026 18.2822 17.2206L19.1744 16.8904L18.2822 16.5603C17.7904 16.3783 17.4026 15.9905 17.2206 15.4987L16.8905 14.6065ZM17.5646 13.3215C17.333 12.6957 16.448 12.6957 16.2164 13.3215L15.5492 15.1245C15.4764 15.3213 15.3213 15.4764 15.1246 15.5492L13.3215 16.2164C12.6958 16.4479 12.6958 17.333 13.3215 17.5645L15.1246 18.2317C15.3213 18.3045 15.4764 18.4596 15.5492 18.6564L16.2164 20.4594C16.448 21.0851 17.333 21.0851 17.5646 20.4594L18.2317 18.6564C18.3045 18.4596 18.4597 18.3045 18.6564 18.2317L20.4594 17.5645C21.0852 17.333 21.0852 16.4479 20.4594 16.2164L18.6564 15.5492C18.4597 15.4764 18.3045 15.3213 18.2317 15.1245L17.5646 13.3215Z" fill="black"/>
</svg>
