<svg width="25" height="25" viewBox="0 0 25 25" fill="none" xmlns="http://www.w3.org/2000/svg">
<path fill-rule="evenodd" clip-rule="evenodd" d="M10.5469 5.28356L9.56169 7.94606C9.28474 8.69451 8.69463 9.28461 7.94618 9.56157L5.28368 10.5468L7.94618 11.532C8.69463 11.8089 9.28474 12.399 9.56169 13.1475L10.5469 15.81L11.5321 13.1475C11.8091 12.399 12.3992 11.8089 13.1476 11.532L15.8101 10.5468L13.1476 9.56157C12.3992 9.28461 11.8091 8.69451 11.5321 7.94606L10.5469 5.28356ZM11.6459 3.75128C11.2684 2.73102 9.82538 2.73102 9.44785 3.75128L8.0963 7.40381C7.9776 7.72458 7.7247 7.97748 7.40393 8.09617L3.7514 9.44773C2.73114 9.82526 2.73114 11.2683 3.7514 11.6458L7.40393 12.9974C7.7247 13.1161 7.9776 13.369 8.0963 13.6897L9.44785 17.3423C9.82538 18.3625 11.2684 18.3625 11.6459 17.3423L12.9975 13.6897C13.1162 13.369 13.3691 13.1161 13.6899 12.9974L17.3424 11.6458C18.3627 11.2683 18.3627 9.82526 17.3424 9.44773L13.6899 8.09617C13.3691 7.97748 13.1162 7.72458 12.9975 7.40381L11.6459 3.75128Z" fill="white"/>
<path fill-rule="evenodd" clip-rule="evenodd" d="M18.3592 15.8767L18.0004 16.8465C17.8026 17.3811 17.3811 17.8026 16.8465 18.0005L15.8767 18.3593L16.8465 18.7182C17.3811 18.916 17.8026 19.3375 18.0004 19.8721L18.3592 20.8419L18.7181 19.8721C18.9159 19.3375 19.3374 18.916 19.872 18.7182L20.8418 18.3593L19.872 18.0005C19.3374 17.8026 18.9159 17.3811 18.7181 16.8465L18.3592 15.8767ZM19.0919 14.48C18.8403 13.7999 17.8782 13.7999 17.6266 14.48L16.9014 16.4398C16.8222 16.6537 16.6536 16.8223 16.4398 16.9014L14.48 17.6266C13.7998 17.8783 13.7998 18.8403 14.48 19.092L16.4398 19.8172C16.6536 19.8963 16.8222 20.0649 16.9014 20.2788L17.6266 22.2386C17.8782 22.9188 18.8403 22.9188 19.0919 22.2386L19.8171 20.2788C19.8963 20.0649 20.0649 19.8963 20.2787 19.8172L22.2385 19.092C22.9187 18.8403 22.9187 17.8783 22.2385 17.6266L20.2787 16.9014C20.0649 16.8223 19.8963 16.6537 19.8171 16.4398L19.0919 14.48Z" fill="white"/>
</svg>
