<svg width="22" height="23" viewBox="0 0 22 23" fill="none" xmlns="http://www.w3.org/2000/svg">
<g clip-path="url(#clip0_218_132)">
<path d="M7.32458 13.1513H0.915573C0.410177 13.1513 0 12.7305 0 12.2119V0.939379C0 0.420842 0.410177 0 0.915573 0H17.3959C17.9013 0 18.3115 0.420842 18.3115 0.939379V5.63628H16.4803V1.87876H1.83115V11.2726H7.32458V13.1513Z" fill="white"/>
<path d="M15.5647 15.0301C12.8629 15.0301 10.6179 14.4298 9.1557 13.4219C9.1557 14.1227 9.1557 14.5848 9.1557 15.0301C9.1557 16.5866 12.0251 17.8482 15.5647 17.8482C19.1043 17.8482 21.9737 16.5866 21.9737 15.0301C21.9737 14.5848 21.9737 14.1227 21.9737 13.4219C20.5115 14.4298 18.2666 15.0301 15.5647 15.0301Z" fill="white"/>
<path d="M15.5647 19.727C12.8629 19.727 10.6179 19.1267 9.1557 18.1188C9.1557 18.8196 9.1557 19.2817 9.1557 19.727C9.1557 21.2835 12.0251 22.5451 15.5647 22.5451C19.1043 22.5451 21.9737 21.2835 21.9737 19.727C21.9737 19.2817 21.9737 18.8196 21.9737 18.1188C20.5115 19.1267 18.2666 19.727 15.5647 19.727Z" fill="white"/>
<path d="M8.15684 8.1463C8.78492 7.39386 9.74444 6.7795 10.964 6.34645C10.8532 5.42022 10.0896 4.6969 9.15573 4.6969C8.14585 4.6969 7.32458 5.53952 7.32458 6.57566C7.32458 7.23322 7.65694 7.81094 8.15684 8.1463Z" fill="white"/>
<path d="M15.5647 13.1513C19.1043 13.1513 21.9737 11.8896 21.9737 10.3332C21.9737 8.77674 19.1043 7.51501 15.5647 7.51501C12.0251 7.51501 9.1557 8.77674 9.1557 10.3332C9.1557 11.8896 12.0251 13.1513 15.5647 13.1513Z" fill="white"/>
</g>
<defs>
<clipPath id="clip0_218_132">
<rect width="21.9737" height="22.5451" fill="white"/>
</clipPath>
</defs>
</svg>
