<svg width="22" height="23" viewBox="0 0 22 23" fill="none" xmlns="http://www.w3.org/2000/svg">
<g clip-path="url(#clip0_218_218)">
<path d="M6.40904 19.2573C6.40904 20.378 5.31585 20.6166 4.99906 20.6626C4.25836 20.6419 3.66232 20.021 3.66232 19.2573V1.87876H11.9025V0H2.74675C2.24135 0 1.83118 0.420842 1.83118 0.939379V19.2573C1.83118 21.0703 3.26863 22.5451 5.03568 22.5451H18.7693C20.5363 22.5451 21.9738 21.0703 21.9738 19.2573V17.8482H6.40904V19.2573Z" fill="white"/>
<path d="M17.3959 11.2726C16.0345 11.2726 14.7728 10.8311 13.7336 10.0852V15.9695L17.3959 13.1513L21.0582 15.9695V10.0852C20.0191 10.8311 18.7574 11.2726 17.3959 11.2726Z" fill="white"/>
<path d="M17.3959 9.39379C19.9241 9.39379 21.9737 7.29092 21.9737 4.6969C21.9737 2.10287 19.9241 0 17.3959 0C14.8676 0 12.818 2.10287 12.818 4.6969C12.818 7.29092 14.8676 9.39379 17.3959 9.39379Z" fill="white"/>
</g>
<defs>
<clipPath id="clip0_218_218">
<rect width="21.9737" height="22.5451" fill="white"/>
</clipPath>
</defs>
</svg>
