<svg width="22" height="23" viewBox="0 0 22 23" fill="none" xmlns="http://www.w3.org/2000/svg">
<g clip-path="url(#clip0_218_413)">
<path d="M10.9869 0C4.92853 0 0 5.05668 0 11.2726C0 17.4884 4.92853 22.5451 10.9869 22.5451C17.0452 22.5451 21.9737 17.4884 21.9737 11.2726C21.9737 5.05668 17.0452 0 10.9869 0ZM10.9869 20.6663C8.69794 20.6663 6.60769 19.7937 5.00086 18.3639C5.00818 18.3517 5.01825 18.3414 5.02466 18.3292C6.53719 15.729 5.58591 14.1405 4.88367 13.4247C4.69872 13.2359 4.48722 13.0639 4.26932 12.8911C3.69983 12.4374 3.32261 12.1377 3.32261 11.2726C3.32261 10.8649 3.54418 10.7052 4.63829 10.3219C5.39089 10.0579 6.24329 9.75921 6.79355 9.02931C8.07078 7.33467 6.66629 4.72132 6.37147 4.21406C6.2204 3.95385 6.05651 3.70961 5.88622 3.4757C7.26232 2.52505 8.90486 1.95767 10.6701 1.89473C10.9557 2.39166 11.4273 2.81062 11.8905 3.21925C12.2861 3.5687 12.9142 3.71524 13.2374 4.12857C13.4223 4.3653 13.3326 4.82183 13.339 5.12056C13.3518 5.7133 13.7015 6.57284 14.8808 6.57284C14.933 6.57284 14.987 6.57096 15.0429 6.5672C15.4988 6.53432 16.9216 6.1999 18.3517 5.71518C19.4724 7.27455 20.1426 9.19277 20.1426 11.2726C20.1426 16.4523 16.0353 20.6663 10.9869 20.6663Z" fill="white"/>
<path d="M14.2042 8.36328C12.7613 8.36328 11.2881 9.06688 10.5392 10.1133C10.0365 10.816 9.89004 11.6286 10.1263 12.4017C10.5978 13.9441 10.6436 14.8535 10.3487 15.8727C10.0869 16.7782 10.0613 18.0915 11.5564 18.7171C11.8384 18.8355 12.1478 18.8956 12.4738 18.8956C13.5853 18.8956 14.901 18.1901 16.0848 16.9586C17.5076 15.4791 18.3444 13.6661 18.3243 12.1067C18.2968 10.0081 16.4867 8.36328 14.2042 8.36328Z" fill="white"/>
</g>
<defs>
<clipPath id="clip0_218_413">
<rect width="21.9737" height="22.5451" fill="white"/>
</clipPath>
</defs>
</svg>
